<svg xmlns="http://www.w3.org/2000/svg" viewBox="0 0 48 48">
  
<g transform="matrix(2,0,0,2,0,0)"><path d="M22.5,9.5H20.64a9.51,9.51,0,0,0-.76-1.84l1.31-1.32a1.46,1.46,0,0,0,.44-1.06,1.47,1.47,0,0,0-.44-1.06L19.78,2.81a1.49,1.49,0,0,0-2.12,0L16.34,4.13a9,9,0,0,0-1.84-.77V1.5A1.5,1.5,0,0,0,13,0H11A1.5,1.5,0,0,0,9.5,1.5V3.36a9,9,0,0,0-1.84.77L6.34,2.81a1.49,1.49,0,0,0-2.12,0L2.81,4.22a1.47,1.47,0,0,0-.44,1.06,1.44,1.44,0,0,0,.44,1.06L4.12,7.66A9.51,9.51,0,0,0,3.36,9.5H1.5A1.5,1.5,0,0,0,0,11v2a1.5,1.5,0,0,0,1.5,1.5H3.36a9.26,9.26,0,0,0,.76,1.84L2.81,17.66a1.5,1.5,0,0,0,0,2.12l1.41,1.41a1.53,1.53,0,0,0,2.12,0l1.32-1.31a9.26,9.26,0,0,0,1.84.76V22.5A1.5,1.5,0,0,0,11,24h2a1.5,1.5,0,0,0,1.5-1.5V20.64a9.26,9.26,0,0,0,1.84-.76l1.32,1.31a1.49,1.49,0,0,0,2.12,0l1.41-1.41a1.5,1.5,0,0,0,0-2.12l-1.31-1.32a9.26,9.26,0,0,0,.76-1.84H22.5A1.5,1.5,0,0,0,24,13V11A1.5,1.5,0,0,0,22.5,9.5ZM12,17a5,5,0,1,1,5-5A5,5,0,0,1,12,17Z"></path></g></svg>