<svg width="24" height="25" viewBox="0 0 24 25" fill="none" xmlns="http://www.w3.org/2000/svg">
<g clip-path="url(#clip0_784_21666)">
<path d="M19.5 10.0322H18.75V7.28223C18.75 5.49202 18.0388 3.77513 16.773 2.50926C15.5071 1.24339 13.7902 0.532227 12 0.532227C10.2098 0.532227 8.4929 1.24339 7.22703 2.50926C5.96116 3.77513 5.25 5.49202 5.25 7.28223V10.0322H4.5C3.96957 10.0322 3.46086 10.2429 3.08579 10.618C2.71071 10.9931 2.5 11.5018 2.5 12.0322V22.5322C2.5 23.0627 2.71071 23.5714 3.08579 23.9464C3.46086 24.3215 3.96957 24.5322 4.5 24.5322H19.5C20.0304 24.5322 20.5391 24.3215 20.9142 23.9464C21.2893 23.5714 21.5 23.0627 21.5 22.5322V12.0322C21.5 11.5018 21.2893 10.9931 20.9142 10.618C20.5391 10.2429 20.0304 10.0322 19.5 10.0322ZM12 19.0322C11.6044 19.0322 11.2178 18.9149 10.8889 18.6952C10.56 18.4754 10.3036 18.163 10.1522 17.7976C10.0009 17.4321 9.96126 17.03 10.0384 16.642C10.1156 16.2541 10.3061 15.8977 10.5858 15.618C10.8655 15.3383 11.2219 15.1478 11.6098 15.0707C11.9978 14.9935 12.3999 15.0331 12.7654 15.1845C13.1308 15.3358 13.4432 15.5922 13.6629 15.9211C13.8827 16.25 14 16.6367 14 17.0322C14 17.5627 13.7893 18.0714 13.4142 18.4464C13.0391 18.8215 12.5304 19.0322 12 19.0322ZM16.25 9.53223C16.25 9.66483 16.1973 9.79201 16.1036 9.88578C16.0098 9.97955 15.8826 10.0322 15.75 10.0322H8.25C8.11739 10.0322 7.99021 9.97955 7.89645 9.88578C7.80268 9.79201 7.75 9.66483 7.75 9.53223V7.28223C7.75 6.15506 8.19777 5.07405 8.9948 4.27702C9.79183 3.47999 10.8728 3.03223 12 3.03223C13.1272 3.03223 14.2082 3.47999 15.0052 4.27702C15.8022 5.07405 16.25 6.15506 16.25 7.28223V9.53223Z" fill="#F8F8F8"/>
</g>
<defs>
<clipPath id="clip0_784_21666">
<rect width="24" height="24" fill="white" transform="translate(0 0.532227)"/>
</clipPath>
</defs>
</svg>
