<svg width="301" height="293" viewBox="0 0 301 293" fill="none" xmlns="http://www.w3.org/2000/svg">
<g clip-path="url(#clip0_99:6850)">
<path d="M190.952 65.8586H110.115C108.273 65.8608 106.507 66.5936 105.205 67.8962C103.902 69.1988 103.169 70.9648 103.167 72.8069V252.468L102.241 252.751L82.41 258.823C81.4701 259.11 80.455 259.012 79.5874 258.551C78.7198 258.09 78.0707 257.303 77.7825 256.364L18.7955 63.6861C18.5085 62.7462 18.6063 61.7309 19.0675 60.8632C19.5288 59.9954 20.3156 59.3463 21.2553 59.0585L51.8142 49.7014L140.406 22.5843L170.964 13.2272C171.429 13.0841 171.918 13.0341 172.402 13.08C172.887 13.126 173.357 13.267 173.787 13.4951C174.217 13.7231 174.598 14.0336 174.907 14.409C175.217 14.7843 175.45 15.217 175.592 15.6823L190.67 64.9322L190.952 65.8586Z" fill="#F2F2F2"/>
<path d="M208.592 64.9319L190.42 5.57448C190.117 4.58548 189.623 3.66574 188.965 2.86783C188.307 2.06991 187.498 1.40947 186.585 0.924221C185.672 0.438976 184.672 0.138439 183.642 0.0397959C182.613 -0.0588469 181.574 0.0463374 180.585 0.349327L137.621 13.5002L49.0348 40.6219L6.07091 53.7775C4.07504 54.3903 2.40386 55.7701 1.42421 57.6138C0.444555 59.4576 0.236463 61.6147 0.845617 63.6117L62.9546 266.471C63.4494 268.083 64.4479 269.494 65.8035 270.497C67.1591 271.5 68.8005 272.042 70.4867 272.044C71.2672 272.044 72.0432 271.927 72.7888 271.696L102.241 262.682L103.167 262.395V261.426L102.241 261.709L72.5156 270.811C70.7539 271.348 68.851 271.165 67.2245 270.301C65.598 269.437 64.3807 267.963 63.8394 266.202L1.73519 63.3384C1.46703 62.4661 1.37357 61.5495 1.46016 60.641C1.54674 59.7326 1.81168 58.8501 2.2398 58.0442C2.66792 57.2383 3.25081 56.5247 3.9551 55.9444C4.65938 55.3641 5.47122 54.9284 6.34413 54.6622L49.3081 41.5067L137.895 14.3896L180.859 1.23409C181.521 1.03203 182.209 0.929008 182.902 0.928363C184.387 0.931699 185.833 1.41065 187.026 2.29507C188.22 3.17948 189.099 4.42289 189.535 5.84316L207.624 64.9319L207.911 65.8583H208.875L208.592 64.9319Z" fill="#3F3D56"/>
<path d="M57.3286 59.2098C56.4358 59.2092 55.5667 58.9224 54.8488 58.3917C54.1309 57.8609 53.602 57.114 53.3397 56.2606L47.3732 36.772C47.2129 36.2485 47.1572 35.6985 47.2095 35.1535C47.2617 34.6085 47.4208 34.0792 47.6776 33.5957C47.9345 33.1122 48.2841 32.684 48.7065 32.3356C49.1288 31.9872 49.6156 31.7255 50.1392 31.5653L131.638 6.61432C132.695 6.2917 133.837 6.40173 134.814 6.92026C135.79 7.43879 136.52 8.32345 136.845 9.38009L142.812 28.8689C143.134 29.9262 143.024 31.0681 142.505 32.0443C141.987 33.0205 141.102 33.7511 140.046 34.0759L58.5466 59.0268C58.152 59.1479 57.7415 59.2096 57.3286 59.2098Z" fill="#6EC395"/>
<path d="M88.5835 20.8238C93.7001 20.8238 97.8479 16.676 97.8479 11.5594C97.8479 6.44276 93.7001 2.29492 88.5835 2.29492C83.4669 2.29492 79.319 6.44276 79.319 11.5594C79.319 16.676 83.4669 20.8238 88.5835 20.8238Z" fill="#6EC395"/>
<path d="M88.5835 17.4264C91.8235 17.4264 94.45 14.7999 94.45 11.5599C94.45 8.3199 91.8235 5.69336 88.5835 5.69336C85.3435 5.69336 82.7169 8.3199 82.7169 11.5599C82.7169 14.7999 85.3435 17.4264 88.5835 17.4264Z" fill="white"/>
<path d="M279.655 269.676H123.086C122.042 269.675 121.041 269.26 120.303 268.522C119.565 267.784 119.15 266.783 119.148 265.739V78.1337C119.149 77.0898 119.565 76.089 120.303 75.3508C121.041 74.6127 122.042 74.1975 123.086 74.1963H279.655C280.699 74.1975 281.7 74.6127 282.438 75.3509C283.176 76.089 283.591 77.0898 283.592 78.1337V265.739C283.591 266.783 283.176 267.784 282.438 268.522C281.7 269.26 280.699 269.675 279.655 269.676Z" fill="#E6E6E6"/>
<path d="M207.624 64.9316H110.115C108.028 64.9346 106.026 65.7652 104.55 67.2414C103.074 68.7176 102.244 70.7188 102.241 72.8064V261.709L103.167 261.426V72.8064C103.169 70.9643 103.902 69.1983 105.205 67.8957C106.507 66.5931 108.273 65.8603 110.115 65.8581H207.911L207.624 64.9316ZM292.625 64.9316H110.115C108.028 64.9346 106.026 65.7652 104.55 67.2414C103.074 68.7176 102.244 70.7188 102.241 72.8064V284.963C102.244 287.05 103.074 289.051 104.55 290.528C106.026 292.004 108.028 292.834 110.115 292.837H292.625C294.713 292.834 296.714 292.004 298.19 290.528C299.666 289.051 300.497 287.05 300.5 284.963V72.8064C300.497 70.7188 299.666 68.7176 298.19 67.2414C296.714 65.7652 294.713 64.9346 292.625 64.9316ZM299.574 284.963C299.571 286.805 298.839 288.571 297.536 289.873C296.233 291.176 294.467 291.909 292.625 291.911H110.115C108.273 291.909 106.507 291.176 105.205 289.873C103.902 288.571 103.169 286.805 103.167 284.963V72.8064C103.169 70.9643 103.902 69.1983 105.205 67.8957C106.507 66.5931 108.273 65.8603 110.115 65.8581H292.625C294.467 65.8603 296.233 66.5931 297.536 67.8957C298.839 69.1983 299.571 70.9643 299.574 72.8064V284.963Z" fill="#3F3D56"/>
<path d="M243.987 85.3136H158.754C157.649 85.3123 156.589 84.8727 155.807 84.0911C155.026 83.3096 154.586 82.2499 154.585 81.1446V60.7628C154.586 59.6574 155.026 58.5978 155.807 57.8162C156.589 57.0346 157.649 56.595 158.754 56.5938H243.987C245.092 56.595 246.152 57.0346 246.933 57.8162C247.715 58.5978 248.155 59.6574 248.156 60.7628V81.1446C248.155 82.2499 247.715 83.3096 246.933 84.0911C246.152 84.8727 245.092 85.3123 243.987 85.3136Z" fill="#6EC395"/>
<path d="M201.37 57.983C206.487 57.983 210.635 53.8352 210.635 48.7186C210.635 43.6019 206.487 39.4541 201.37 39.4541C196.254 39.4541 192.106 43.6019 192.106 48.7186C192.106 53.8352 196.254 57.983 201.37 57.983Z" fill="#6EC395"/>
<path d="M201.37 54.362C204.487 54.362 207.013 51.8356 207.013 48.7191C207.013 45.6026 204.487 43.0762 201.37 43.0762C198.254 43.0762 195.727 45.6026 195.727 48.7191C195.727 51.8356 198.254 54.362 201.37 54.362Z" fill="white"/>
</g>
<defs>
<clipPath id="clip0_99:6850">
<rect width="300" height="292.837" fill="white" transform="translate(0.5)"/>
</clipPath>
</defs>
</svg>
