<svg width="16" height="17" viewBox="0 0 16 17" fill="none" xmlns="http://www.w3.org/2000/svg">
<g clip-path="url(#clip0_943_6184)">
<path d="M6.33333 0.5H1C0.447715 0.5 0 0.947715 0 1.5V6.83333C0 7.38562 0.447715 7.83333 1 7.83333H6.33333C6.88562 7.83333 7.33333 7.38562 7.33333 6.83333V1.5C7.33333 0.947715 6.88562 0.5 6.33333 0.5Z" fill="#00308F"/>
<path d="M14.9998 0.5H9.6665C9.11422 0.5 8.6665 0.947715 8.6665 1.5V6.83333C8.6665 7.38562 9.11422 7.83333 9.6665 7.83333H14.9998C15.5521 7.83333 15.9998 7.38562 15.9998 6.83333V1.5C15.9998 0.947715 15.5521 0.5 14.9998 0.5Z" fill="#00308F"/>
<path d="M6.33333 9.16699H1C0.447715 9.16699 0 9.61471 0 10.167V15.5003C0 16.0526 0.447715 16.5003 1 16.5003H6.33333C6.88562 16.5003 7.33333 16.0526 7.33333 15.5003V10.167C7.33333 9.61471 6.88562 9.16699 6.33333 9.16699Z" fill="#00308F"/>
<path d="M14.9998 9.16699H9.6665C9.11422 9.16699 8.6665 9.61471 8.6665 10.167V15.5003C8.6665 16.0526 9.11422 16.5003 9.6665 16.5003H14.9998C15.5521 16.5003 15.9998 16.0526 15.9998 15.5003V10.167C15.9998 9.61471 15.5521 9.16699 14.9998 9.16699Z" fill="#00308F"/>
</g>
<defs>
<clipPath id="clip0_943_6184">
<rect width="16" height="16" fill="white" transform="translate(0 0.5)"/>
</clipPath>
</defs>
</svg>
