<svg xmlns="http://www.w3.org/2000/svg" viewBox="0 0 48 48">
  
<g transform="matrix(2,0,0,2,0,0)"><g>
    <path d="M9.5,21.5h-3A.5.5,0,0,0,6,22a2,2,0,0,0,4,0A.5.5,0,0,0,9.5,21.5Z" style="fill: #000000"></path>
    <path d="M14.5,13.65V13a8.73,8.73,0,0,0-.21-1.91,7,7,0,0,1-2.67-4.3A6,6,0,0,0,9.5,5.73V4.5a1.5,1.5,0,0,0-3,0V5.73c-2.92.79-5,3.78-5,7.27v.65A13.78,13.78,0,0,1,.05,19.78a.51.51,0,0,0,.23.67.54.54,0,0,0,.22.05h15A.5.5,0,0,0,16,20a.54.54,0,0,0-.05-.22A13.78,13.78,0,0,1,14.5,13.65Z" style="fill: #000000"></path>
    <path d="M18.5,0A5.5,5.5,0,1,0,24,5.5,5.5,5.5,0,0,0,18.5,0Zm-.75,2.5a.75.75,0,0,1,1.5,0v3a.75.75,0,0,1-1.5,0Zm.75,7a1.13,1.13,0,1,1,0-2.25,1.13,1.13,0,0,1,0,2.25Z" style="fill: #000000"></path>
  </g></g></svg>