<svg xmlns="http://www.w3.org/2000/svg" viewBox="0 0 48 48">
  
<g transform="matrix(2,0,0,2,0,0)"><g>
    <path d="M14.24,21H9.76a.25.25,0,0,0-.24.22,2.64,2.64,0,0,0,0,.28,2.5,2.5,0,0,0,5,0,2.64,2.64,0,0,0,0-.28A.25.25,0,0,0,14.24,21Z" style="fill: #000000"></path>
    <path d="M21.45,19.28a16.29,16.29,0,0,1-1.75-7.34v-.76a9.11,9.11,0,0,0-3.87-7.63,6.31,6.31,0,0,0-2.33-.91V1.5a1.5,1.5,0,0,0-3,0V2.65A6.68,6.68,0,0,0,7.65,3.93,9.18,9.18,0,0,0,4.3,11.18v.76a16.29,16.29,0,0,1-1.75,7.34.51.51,0,0,0,0,.48A.52.52,0,0,0,3,20H21a.52.52,0,0,0,.43-.24A.51.51,0,0,0,21.45,19.28Z" style="fill: #000000"></path>
  </g></g></svg>