<svg width="16" height="17" viewBox="0 0 16 17" fill="none" xmlns="http://www.w3.org/2000/svg">
<g clip-path="url(#clip0_943_9632)">
<path d="M13.6668 1.8335H10.3335C10.3055 1.83197 10.2783 1.82394 10.254 1.81006C10.2297 1.79617 10.209 1.7768 10.1935 1.7535C9.9684 1.37201 9.6477 1.05582 9.26305 0.836167C8.8784 0.616509 8.44311 0.500977 8.00016 0.500977C7.55721 0.500977 7.12192 0.616509 6.73728 0.836167C6.35263 1.05582 6.03192 1.37201 5.80683 1.7535C5.79132 1.7768 5.77059 1.79617 5.74629 1.81006C5.72199 1.82394 5.69478 1.83197 5.66683 1.8335H2.3335C2.06828 1.8335 1.81393 1.93886 1.62639 2.1264C1.43885 2.31393 1.3335 2.56829 1.3335 2.8335V15.5002C1.3335 15.7654 1.43885 16.0197 1.62639 16.2073C1.81393 16.3948 2.06828 16.5002 2.3335 16.5002H13.6668C13.932 16.5002 14.1864 16.3948 14.3739 16.2073C14.5615 16.0197 14.6668 15.7654 14.6668 15.5002V2.8335C14.6668 2.56829 14.5615 2.31393 14.3739 2.1264C14.1864 1.93886 13.932 1.8335 13.6668 1.8335ZM12.6668 11.3402C12.6677 11.7386 12.5258 12.1241 12.2668 12.4268L10.9868 13.9202C10.8295 14.1018 10.635 14.2476 10.4165 14.3477C10.1979 14.4477 9.9605 14.4997 9.72016 14.5002H3.66683C3.57842 14.5002 3.49364 14.465 3.43113 14.4025C3.36862 14.34 3.3335 14.2552 3.3335 14.1668V4.16684C3.3335 4.07843 3.36862 3.99365 3.43113 3.93113C3.49364 3.86862 3.57842 3.8335 3.66683 3.8335H12.3335C12.4219 3.8335 12.5067 3.86862 12.5692 3.93113C12.6317 3.99365 12.6668 4.07843 12.6668 4.16684V11.3402Z" fill="#00308F"/>
<path d="M10.6668 6H5.3335C5.20089 6 5.07371 6.05268 4.97994 6.14645C4.88617 6.24022 4.8335 6.36739 4.8335 6.5C4.8335 6.63261 4.88617 6.75978 4.97994 6.85355C5.07371 6.94732 5.20089 7 5.3335 7H10.6668C10.7994 7 10.9266 6.94732 11.0204 6.85355C11.1142 6.75978 11.1668 6.63261 11.1668 6.5C11.1668 6.36739 11.1142 6.24022 11.0204 6.14645C10.9266 6.05268 10.7994 6 10.6668 6Z" fill="#00308F"/>
<path d="M10.6668 8.33398H5.3335C5.20089 8.33398 5.07371 8.38666 4.97994 8.48043C4.88617 8.5742 4.8335 8.70138 4.8335 8.83398C4.8335 8.96659 4.88617 9.09377 4.97994 9.18754C5.07371 9.28131 5.20089 9.33398 5.3335 9.33398H10.6668C10.7994 9.33398 10.9266 9.28131 11.0204 9.18754C11.1142 9.09377 11.1668 8.96659 11.1668 8.83398C11.1668 8.70138 11.1142 8.5742 11.0204 8.48043C10.9266 8.38666 10.7994 8.33398 10.6668 8.33398Z" fill="#00308F"/>
<path d="M8.3335 10.667H5.3335C5.20089 10.667 5.07371 10.7197 4.97994 10.8134C4.88617 10.9072 4.8335 11.0344 4.8335 11.167C4.8335 11.2996 4.88617 11.4268 4.97994 11.5205C5.07371 11.6143 5.20089 11.667 5.3335 11.667H8.3335C8.4661 11.667 8.59328 11.6143 8.68705 11.5205C8.78082 11.4268 8.8335 11.2996 8.8335 11.167C8.8335 11.0344 8.78082 10.9072 8.68705 10.8134C8.59328 10.7197 8.4661 10.667 8.3335 10.667Z" fill="#00308F"/>
</g>
<defs>
<clipPath id="clip0_943_9632">
<rect width="16" height="16" fill="white" transform="translate(0 0.5)"/>
</clipPath>
</defs>
</svg>
