<svg xmlns="http://www.w3.org/2000/svg" viewBox="0 0 48 48">
  
<g transform="matrix(2,0,0,2,0,0)"><g>
    <circle cx="9" cy="10.5" r="1" style="fill: #000000"></circle>
    <circle cx="15" cy="10.5" r="1" style="fill: #000000"></circle>
    <path d="M19,11.57a.5.5,0,0,1-.3-.53,3.27,3.27,0,0,0,0-.54,3.74,3.74,0,0,0-1.32-2.86.49.49,0,0,1-.18-.38V5.85a.24.24,0,0,0-.34-.23l-4,1.57a2.43,2.43,0,0,1-.92.18,2.39,2.39,0,0,1-.83-.15L7.09,5.78A.25.25,0,0,0,6.75,6V7.26a.49.49,0,0,1-.17.38A3.74,3.74,0,0,0,5.25,10.5a4.9,4.9,0,0,0,0,.54.51.51,0,0,1-.29.53A3.76,3.76,0,0,0,2.75,15v2.25a5.75,5.75,0,0,0,4,5.47A.23.23,0,0,0,7,22.64a.24.24,0,0,0,0-.29A6,6,0,0,1,6,19a.5.5,0,0,1,1,0,5,5,0,0,0,10,0,.5.5,0,0,1,1,0,6,6,0,0,1-1,3.35.24.24,0,0,0,0,.29.23.23,0,0,0,.27.08,5.75,5.75,0,0,0,4-5.47V15A3.75,3.75,0,0,0,19,11.57ZM9,12.75a2.25,2.25,0,1,1,2.25-2.25A2.25,2.25,0,0,1,9,12.75Zm4.17,1.33-.63.93a.68.68,0,0,1-1.08,0l-.63-.93a.27.27,0,0,1,0-.19.3.3,0,0,1,.12-.17,3.64,3.64,0,0,0,.91-.75.23.23,0,0,1,.18-.08.25.25,0,0,1,.19.09,3.83,3.83,0,0,0,.91.74.25.25,0,0,1,.11.17A.22.22,0,0,1,13.17,14.08ZM15,12.75a2.25,2.25,0,1,1,2.25-2.25A2.25,2.25,0,0,1,15,12.75Z" style="fill: #000000"></path>
    <path d="M4.75,7.43a1,1,0,0,0,1-1V4.6a.23.23,0,0,1,.11-.2.25.25,0,0,1,.22,0l5.41,1.92a1.43,1.43,0,0,0,.5.09,1.5,1.5,0,0,0,.55-.11l6.05-2.38a.75.75,0,0,0,.48-.7.73.73,0,0,0-.48-.69L12.53.11a1.46,1.46,0,0,0-1,0L4.08,2.71a.5.5,0,0,0-.33.47V6.43A1,1,0,0,0,4.75,7.43Z" style="fill: #000000"></path>
  </g></g></svg>