<svg xmlns="http://www.w3.org/2000/svg" viewBox="0 0 48 48">
  
<g transform="matrix(2,0,0,2,0,0)"><path d="M23.71,11.29,20.57,8.16A.29.29,0,0,1,20.5,8V2a1,1,0,0,0-1-1h-3a1,1,0,0,0-1,1v.48a.25.25,0,0,1-.15.23.26.26,0,0,1-.28,0L12.71.29a1,1,0,0,0-1.42,0l-11,11a1,1,0,0,0-.21,1.09A1,1,0,0,0,1,13H2.25a.25.25,0,0,1,.25.25V23a1,1,0,0,0,1,1H9.25a.25.25,0,0,0,.25-.25V19a2.5,2.5,0,0,1,5,0v4.75a.25.25,0,0,0,.25.25H20.5a1,1,0,0,0,1-1V13.25a.25.25,0,0,1,.25-.25H23a1,1,0,0,0,.92-.62A1,1,0,0,0,23.71,11.29Z" style="fill: rgba(40, 40, 40, 0.85)"></path></g></svg>