<svg width="24" height="24" viewBox="0 0 24 24" fill="none" xmlns="http://www.w3.org/2000/svg">
<path d="M5.75 6C6.01522 6 6.26957 5.89464 6.45711 5.70711C6.64464 5.51957 6.75 5.26522 6.75 5V2H15.59L17.75 4.16V5C17.75 5.26522 17.8554 5.51957 18.0429 5.70711C18.2304 5.89464 18.4848 6 18.75 6C19.0152 6 19.2696 5.89464 19.4571 5.70711C19.6446 5.51957 19.75 5.26522 19.75 5V3.75C19.7562 3.61172 19.7336 3.47367 19.6837 3.34457C19.6338 3.21547 19.5576 3.09814 19.46 3L17 0.59C16.6266 0.214412 16.1196 0.00223279 15.59 0L6.75 0C6.21957 0 5.71086 0.210714 5.33579 0.585786C4.96071 0.960859 4.75 1.46957 4.75 2V5C4.75 5.26522 4.85536 5.51957 5.04289 5.70711C5.23043 5.89464 5.48478 6 5.75 6Z" fill="#292E35" fill-opacity="0.87"/>
<path d="M21.5 7H2.5C1.83696 7 1.20107 7.26339 0.732233 7.73223C0.263392 8.20107 0 8.83696 0 9.5L0 14C0 14.663 0.263392 15.2989 0.732233 15.7678C1.20107 16.2366 1.83696 16.5 2.5 16.5H5V22.75C5 22.9142 5.03233 23.0767 5.09515 23.2284C5.15797 23.38 5.25004 23.5178 5.36612 23.6339C5.48219 23.75 5.61999 23.842 5.77165 23.9049C5.9233 23.9677 6.08585 24 6.25 24H18.25C18.4142 24 18.5767 23.9677 18.7284 23.9049C18.88 23.842 19.0178 23.75 19.1339 23.6339C19.25 23.5178 19.342 23.38 19.4049 23.2284C19.4677 23.0767 19.5 22.9142 19.5 22.75V16.5H21.5C21.8283 16.5 22.1534 16.4353 22.4567 16.3097C22.76 16.1841 23.0356 15.9999 23.2678 15.7678C23.4999 15.5356 23.6841 15.26 23.8097 14.9567C23.9353 14.6534 24 14.3283 24 14V9.5C24 9.1717 23.9353 8.84661 23.8097 8.54329C23.6841 8.23998 23.4999 7.96438 23.2678 7.73223C23.0356 7.50009 22.76 7.31594 22.4567 7.1903C22.1534 7.06466 21.8283 7 21.5 7ZM3.5 11.5C3.30222 11.5 3.10888 11.4414 2.94443 11.3315C2.77998 11.2216 2.65181 11.0654 2.57612 10.8827C2.50043 10.7 2.48063 10.4989 2.51921 10.3049C2.5578 10.1109 2.65304 9.93275 2.79289 9.79289C2.93275 9.65304 3.11093 9.5578 3.30491 9.51921C3.49889 9.48063 3.69996 9.50043 3.88268 9.57612C4.06541 9.65181 4.22159 9.77998 4.33147 9.94443C4.44135 10.1089 4.5 10.3022 4.5 10.5C4.5 10.7652 4.39464 11.0196 4.20711 11.2071C4.01957 11.3946 3.76522 11.5 3.5 11.5ZM17.5 21.5C17.5 21.6326 17.4473 21.7598 17.3536 21.8536C17.2598 21.9473 17.1326 22 17 22H7.5C7.36739 22 7.24021 21.9473 7.14645 21.8536C7.05268 21.7598 7 21.6326 7 21.5V12.5C7 12.3674 7.05268 12.2402 7.14645 12.1464C7.24021 12.0527 7.36739 12 7.5 12H17C17.1326 12 17.2598 12.0527 17.3536 12.1464C17.4473 12.2402 17.5 12.3674 17.5 12.5V21.5Z" fill="#292E35" fill-opacity="0.87"/>
<path d="M15 14.75H9.5C9.30109 14.75 9.11032 14.829 8.96967 14.9697C8.82902 15.1103 8.75 15.3011 8.75 15.5C8.75 15.6989 8.82902 15.8897 8.96967 16.0303C9.11032 16.171 9.30109 16.25 9.5 16.25H15C15.1989 16.25 15.3897 16.171 15.5303 16.0303C15.671 15.8897 15.75 15.6989 15.75 15.5C15.75 15.3011 15.671 15.1103 15.5303 14.9697C15.3897 14.829 15.1989 14.75 15 14.75Z" fill="#292E35" fill-opacity="0.87"/>
<path d="M13.25 18.25H9.5C9.30109 18.25 9.11032 18.329 8.96967 18.4697C8.82902 18.6103 8.75 18.8011 8.75 19C8.75 19.1989 8.82902 19.3897 8.96967 19.5303C9.11032 19.671 9.30109 19.75 9.5 19.75H13.25C13.4489 19.75 13.6397 19.671 13.7803 19.5303C13.921 19.3897 14 19.1989 14 19C14 18.8011 13.921 18.6103 13.7803 18.4697C13.6397 18.329 13.4489 18.25 13.25 18.25Z" fill="#292E35" fill-opacity="0.87"/>
</svg>
