<svg xmlns="http://www.w3.org/2000/svg" viewBox="0 0 48 48">
  
<g transform="matrix(2,0,0,2,0,0)"><g>
    <path d="M20.5,2h-5a.27.27,0,0,1-.21-.12,3.82,3.82,0,0,0-6.58,0A.27.27,0,0,1,8.5,2h-5A1.5,1.5,0,0,0,2,3.5v19A1.5,1.5,0,0,0,3.5,24h17A1.5,1.5,0,0,0,22,22.5V3.5A1.5,1.5,0,0,0,20.5,2ZM19,16.26a2.5,2.5,0,0,1-.6,1.63l-1.92,2.24a2.52,2.52,0,0,1-1.9.87H5.5a.5.5,0,0,1-.5-.5V5.5A.5.5,0,0,1,5.5,5h13a.5.5,0,0,1,.5.5Z" style="fill: rgba(40, 40, 40, 0.85)"></path>
    <path d="M16,8.25H8a.75.75,0,0,0,0,1.5h8a.75.75,0,0,0,0-1.5Z" style="fill: rgba(40, 40, 40, 0.85)"></path>
    <path d="M16,11.75H8a.75.75,0,0,0,0,1.5h8a.75.75,0,0,0,0-1.5Z" style="fill: rgba(40, 40, 40, 0.85)"></path>
    <path d="M12.5,15.25H8a.75.75,0,0,0,0,1.5h4.5a.75.75,0,0,0,0-1.5Z" style="fill: rgba(40, 40, 40, 0.85)"></path>
  </g></g></svg>