<svg width="24" height="24" viewBox="0 0 24 24" fill="none" xmlns="http://www.w3.org/2000/svg">
<g clip-path="url(#clip0_201:17447)">
<path d="M17.6719 2.08691L21.9145 6.32955L6.86445 21.3796L2.62181 17.137L17.6719 2.08691Z" stroke="#292E35" stroke-opacity="0.87" stroke-linecap="round" stroke-linejoin="round"/>
<path d="M2.621 17.1367L0.5 23.5007L6.864 21.3797L2.621 17.1367Z" stroke="#292E35" stroke-opacity="0.87" stroke-linecap="round" stroke-linejoin="round"/>
<path d="M21.9139 6.32825L17.6719 2.08624L18.3789 1.37924C18.9447 0.832771 19.7025 0.530388 20.4891 0.537223C21.2757 0.544058 22.0281 0.859565 22.5843 1.41579C23.1406 1.97201 23.4561 2.72445 23.4629 3.51104C23.4697 4.29763 23.1673 5.05544 22.6209 5.62124L21.9139 6.32825Z" stroke="#292E35" stroke-opacity="0.87" stroke-linecap="round" stroke-linejoin="round"/>
<path d="M16.1903 3.51005C16.0951 3.4178 15.9678 3.36621 15.8353 3.36621C15.7027 3.36621 15.5754 3.4178 15.4803 3.51005L4.07026 14.92C4.0234 14.9665 3.9862 15.0218 3.96082 15.0828C3.93543 15.1437 3.92236 15.209 3.92236 15.275C3.92236 15.3411 3.93543 15.4064 3.96082 15.4673C3.9862 15.5283 4.0234 15.5836 4.07026 15.63L8.35026 19.91C8.39515 19.9579 8.44937 19.996 8.50957 20.0221C8.56977 20.0481 8.63467 20.0616 8.70026 20.0616C8.76586 20.0616 8.83076 20.0481 8.89096 20.0221C8.95115 19.996 9.00537 19.9579 9.05026 19.91L20.4703 8.50005C20.5625 8.4049 20.6141 8.27758 20.6141 8.14505C20.6141 8.01252 20.5625 7.8852 20.4703 7.79005L16.1903 3.51005Z" fill="#292E35" fill-opacity="0.87"/>
<path d="M3.00006 16.7097C2.9388 16.6505 2.8637 16.6076 2.7816 16.5849C2.6995 16.5622 2.61302 16.5604 2.53006 16.5797C2.44601 16.5974 2.36827 16.6374 2.30495 16.6955C2.24163 16.7535 2.19504 16.8275 2.17006 16.9097L5.70193e-05 23.3297C-0.0302566 23.4173 -0.0350721 23.5118 -0.0138298 23.6021C0.00741243 23.6923 0.0538401 23.7747 0.120057 23.8397C0.183575 23.9175 0.269065 23.9744 0.365386 24.0029C0.461707 24.0315 0.564392 24.0303 0.660057 23.9997L7.08006 21.8597C7.16033 21.8313 7.23241 21.7836 7.28995 21.7208C7.34749 21.6581 7.38873 21.5821 7.41006 21.4997C7.4359 21.4116 7.43648 21.318 7.41173 21.2296C7.38698 21.1412 7.33789 21.0615 7.27006 20.9997L3.00006 16.7097Z" fill="#292E35" fill-opacity="0.87"/>
<path d="M23 0.999868C22.3289 0.35219 21.4326 -0.00976562 20.5 -0.00976562C19.5673 -0.00976562 18.6711 0.35219 18 0.999868L17.29 1.70987C17.2431 1.75635 17.2059 1.81165 17.1805 1.87258C17.1552 1.93351 17.1421 1.99886 17.1421 2.06487C17.1421 2.13087 17.1552 2.19623 17.1805 2.25716C17.2059 2.31809 17.2431 2.37339 17.29 2.41987L21.57 6.69987C21.6646 6.78918 21.7899 6.83892 21.92 6.83892C22.0501 6.83892 22.1753 6.78918 22.27 6.69987L23 5.99987C23.329 5.67193 23.59 5.2823 23.7681 4.8533C23.9461 4.4243 24.0378 3.96437 24.0378 3.49987C24.0378 3.03537 23.9461 2.57544 23.7681 2.14644C23.59 1.71744 23.329 1.3278 23 0.999868Z" fill="#292E35" fill-opacity="0.87"/>
</g>
<defs>
<clipPath id="clip0_201:17447">
<rect width="24" height="24" fill="white"/>
</clipPath>
</defs>
</svg>
