<svg xmlns="http://www.w3.org/2000/svg" viewBox="0 0 48 48">
  
<g transform="matrix(2,0,0,2,0,0)"><g>
    <path d="M21.5,3H18.75a.25.25,0,0,1-.25-.25V1a1,1,0,0,0-2,0V5.75a.75.75,0,0,1-1.5,0V3.5a.5.5,0,0,0-.5-.5H8.25A.25.25,0,0,1,8,2.75V1A1,1,0,0,0,6,1V5.75a.75.75,0,0,1-1.5,0V3.5A.5.5,0,0,0,4,3H2.5a2,2,0,0,0-2,2V22a2,2,0,0,0,2,2h19a2,2,0,0,0,2-2V5A2,2,0,0,0,21.5,3Zm0,18.5a.5.5,0,0,1-.5.5H3a.5.5,0,0,1-.5-.5V9.5A.5.5,0,0,1,3,9H21a.5.5,0,0,1,.5.5Z" style="fill: #F5F6F8"></path>
    <path d="M18.18,13.11l-6-2.38a.45.45,0,0,0-.36,0l-6,2.38a.51.51,0,0,0-.32.48V17A.75.75,0,0,0,7,17V14.46l4.83,1.7a.51.51,0,0,0,.34,0l6-2.11a.5.5,0,0,0,0-.94Z" style="fill: #F5F6F8"></path>
    <path d="M15.26,15.83,12,17,8.74,15.83a.54.54,0,0,0-.46.06.52.52,0,0,0-.21.41v2.15a.51.51,0,0,0,.34.47l2.57.91a3.13,3.13,0,0,0,2,0l2.57-.91a.51.51,0,0,0,.34-.47V16.3a.52.52,0,0,0-.21-.41A.53.53,0,0,0,15.26,15.83Z" style="fill: #F5F6F8"></path>
  </g></g></svg>