<svg xmlns="http://www.w3.org/2000/svg" viewBox="0 0 48 48">
  
<g transform="matrix(2,0,0,2,0,0)"><g>
    <path d="M23.75,11.52a1.25,1.25,0,0,0-1.25-1.25H11.32a.25.25,0,0,1-.25-.25V7.7a.5.5,0,0,0-.31-.46.51.51,0,0,0-.55.11L6.4,11.17a.48.48,0,0,0,0,.7l3.81,3.82a.51.51,0,0,0,.36.15.43.43,0,0,0,.19,0,.5.5,0,0,0,.31-.46V13a.25.25,0,0,1,.25-.25H22.5A1.25,1.25,0,0,0,23.75,11.52Z" style="fill: #000000"></path>
    <path d="M1.5,23.75A1.25,1.25,0,0,0,2.75,22.5V1.5a1.25,1.25,0,0,0-2.5,0v21A1.25,1.25,0,0,0,1.5,23.75Z" style="fill: #000000"></path>
  </g></g></svg>