<svg xmlns="http://www.w3.org/2000/svg" viewBox="0 0 48 48">
  
<g transform="matrix(2,0,0,2,0,0)"><path d="M22.83,3.58A2.25,2.25,0,0,0,21,0H3A2.26,2.26,0,0,0,1,1.24a2.22,2.22,0,0,0,.18,2.32l7.1,10.17v8A2.26,2.26,0,0,0,10.72,24a2.92,2.92,0,0,0,1.57-.41l2.47-1.54a2.27,2.27,0,0,0,.9-1.8V13.74Zm-9.44,9a1.23,1.23,0,0,0-.23.72v6.48a.5.5,0,0,1-.24.43l-1.41.83a.5.5,0,0,1-.5,0,.5.5,0,0,1-.25-.43V13.34a1.24,1.24,0,0,0-.22-.71L4,3.29a.51.51,0,0,1,0-.52.5.5,0,0,1,.45-.27H19.56a.5.5,0,0,1,.45.27.51.51,0,0,1,0,.52Z"></path></g></svg>