<svg xmlns="http://www.w3.org/2000/svg" viewBox="0 0 48 48">
  
<g transform="matrix(2,0,0,2,0,0)"><g>
    <path d="M12.63,11.16a.28.28,0,0,0,.1-.24.26.26,0,0,0-.16-.19l-1.07-.4-.63-.23a.64.64,0,0,1-.14-.31,2.58,2.58,0,0,1,.06-1.3,5.62,5.62,0,0,0,1.47-4.32A3.85,3.85,0,0,0,8.5,0,3.85,3.85,0,0,0,4.74,4.17,5.57,5.57,0,0,0,6.2,8.47a2.54,2.54,0,0,1,.07,1.32.64.64,0,0,1-.14.31l-.63.23C3.05,11.23,1.29,11.88.75,13A9.2,9.2,0,0,0,0,16.5a.5.5,0,0,0,.5.5H9.29a.25.25,0,0,0,.25-.23A8,8,0,0,1,12.63,11.16Z" style="fill: rgba(40, 40, 40, 0.85)"></path>
    <path d="M17.5,11A6.5,6.5,0,1,0,24,17.5,6.51,6.51,0,0,0,17.5,11ZM22,17.5a1,1,0,0,1-1,1H19a.5.5,0,0,0-.5.5v2a1,1,0,0,1-2,0V19a.5.5,0,0,0-.5-.5H14a1,1,0,0,1,0-2h2a.5.5,0,0,0,.5-.5V14a1,1,0,0,1,2,0v2a.5.5,0,0,0,.5.5h2A1,1,0,0,1,22,17.5Z" style="fill: rgba(40, 40, 40, 0.85)"></path>
  </g></g></svg>