<svg width="24" height="24" viewBox="0 0 24 24" fill="none" xmlns="http://www.w3.org/2000/svg">
<path d="M13.88 21.4998H10.13C10.0438 21.4993 9.95881 21.5212 9.88346 21.5632C9.8081 21.6053 9.74492 21.6661 9.70005 21.7398C9.65792 21.8128 9.63574 21.8956 9.63574 21.9798C9.63574 22.0641 9.65792 22.1469 9.70005 22.2198L10.03 22.8898C10.1941 23.22 10.4462 23.4984 10.7586 23.6943C11.0709 23.8902 11.4314 23.9959 11.8 23.9998H12.2C12.5738 24.0015 12.9406 23.8984 13.2588 23.7022C13.5769 23.506 13.8337 23.2246 14 22.8898L14.33 22.2198C14.3722 22.1469 14.3944 22.0641 14.3944 21.9798C14.3944 21.8956 14.3722 21.8128 14.33 21.7398C14.2843 21.6624 14.2181 21.599 14.1387 21.5567C14.0594 21.5143 13.9699 21.4947 13.88 21.4998Z" fill="#292E35" fill-opacity="0.87"/>
<path d="M12 4.5C12.2652 4.5 12.5196 4.39464 12.7071 4.20711C12.8946 4.01957 13 3.76522 13 3.5V1C13 0.734784 12.8946 0.48043 12.7071 0.292893C12.5196 0.105357 12.2652 0 12 0C11.7348 0 11.4804 0.105357 11.2929 0.292893C11.1054 0.48043 11 0.734784 11 1V3.5C11 3.76522 11.1054 4.01957 11.2929 4.20711C11.4804 4.39464 11.7348 4.5 12 4.5Z" fill="#292E35" fill-opacity="0.87"/>
<path d="M21.1899 3.81032C21.0025 3.62407 20.7491 3.51953 20.4849 3.51953C20.2207 3.51953 19.9673 3.62407 19.7799 3.81032L17.9999 5.58032C17.9062 5.67329 17.8318 5.78389 17.781 5.90575C17.7302 6.02761 17.7041 6.15831 17.7041 6.29032C17.7041 6.42234 17.7302 6.55304 17.781 6.6749C17.8318 6.79676 17.9062 6.90736 17.9999 7.00032C18.0933 7.09301 18.2042 7.16633 18.326 7.2161C18.4478 7.26586 18.5783 7.29108 18.7099 7.29032C18.9722 7.28922 19.2236 7.18507 19.4099 7.00032L21.1799 5.23032C21.2743 5.13802 21.3495 5.02795 21.4011 4.90644C21.4527 4.78494 21.4798 4.65442 21.4807 4.52241C21.4816 4.39039 21.4564 4.2595 21.4065 4.13729C21.3566 4.01507 21.283 3.90395 21.1899 3.81032Z" fill="#292E35" fill-opacity="0.87"/>
<path d="M23 12H21C20.7348 12 20.4804 12.1054 20.2929 12.2929C20.1054 12.4804 20 12.7348 20 13C20 13.2652 20.1054 13.5196 20.2929 13.7071C20.4804 13.8946 20.7348 14 21 14H23C23.2652 14 23.5196 13.8946 23.7071 13.7071C23.8946 13.5196 24 13.2652 24 13C24 12.7348 23.8946 12.4804 23.7071 12.2929C23.5196 12.1054 23.2652 12 23 12Z" fill="#292E35" fill-opacity="0.87"/>
<path d="M5.99979 5.57979L4.21979 3.80979C4.02849 3.64597 3.78242 3.56036 3.53074 3.57008C3.27906 3.5798 3.04032 3.68414 2.86223 3.86223C2.68414 4.04032 2.5798 4.27906 2.57008 4.53074C2.56036 4.78242 2.64597 5.02849 2.80979 5.21979L4.57979 6.99979C4.76605 7.18454 5.01745 7.28869 5.27979 7.28979C5.41308 7.29188 5.54543 7.2673 5.66908 7.2175C5.79272 7.1677 5.90517 7.09368 5.99979 6.99979C6.09352 6.90683 6.16792 6.79623 6.21868 6.67437C6.26945 6.55251 6.29559 6.4218 6.29559 6.28979C6.29559 6.15778 6.26945 6.02708 6.21868 5.90522C6.16792 5.78336 6.09352 5.67276 5.99979 5.57979Z" fill="#292E35" fill-opacity="0.87"/>
<path d="M3 12H1C0.734784 12 0.48043 12.1054 0.292893 12.2929C0.105357 12.4804 0 12.7348 0 13C0 13.2652 0.105357 13.5196 0.292893 13.7071C0.48043 13.8946 0.734784 14 1 14H3C3.26522 14 3.51957 13.8946 3.70711 13.7071C3.89464 13.5196 4 13.2652 4 13C4 12.7348 3.89464 12.4804 3.70711 12.2929C3.51957 12.1054 3.26522 12 3 12Z" fill="#292E35" fill-opacity="0.87"/>
<path d="M12.0004 6C10.6181 6.0022 9.2725 6.44501 8.15903 7.26412C7.04557 8.08323 6.22222 9.23598 5.80858 10.5549C5.39495 11.8739 5.41256 13.2904 5.85886 14.5986C6.30516 15.9069 7.15691 17.0388 8.29039 17.83C8.35632 17.8759 8.40996 17.9373 8.44658 18.0088C8.4832 18.0803 8.50168 18.1597 8.50039 18.24V19C8.50039 19.2652 8.60575 19.5196 8.79328 19.7071C8.98082 19.8946 9.23517 20 9.50039 20H14.5004C14.7656 20 15.02 19.8946 15.2075 19.7071C15.395 19.5196 15.5004 19.2652 15.5004 19V18.24C15.4993 18.1586 15.5189 18.0783 15.5574 18.0066C15.5959 17.9348 15.652 17.8741 15.7204 17.83C16.8546 17.0383 17.7067 15.9055 18.1527 14.5963C18.5988 13.287 18.6156 11.8696 18.2007 10.5502C17.7858 9.23072 16.9608 8.07802 15.8457 7.25969C14.7306 6.44137 13.3835 6.00008 12.0004 6Z" fill="#292E35" fill-opacity="0.87"/>
</svg>
