<svg xmlns="http://www.w3.org/2000/svg" viewBox="0 0 48 48">
  
<g transform="matrix(2,0,0,2,0,0)"><g>
    <path d="M13.75,7.75a6.23,6.23,0,0,1-.66,2.79.5.5,0,0,0,.09.58A4.7,4.7,0,0,0,16.5,12.5a4.75,4.75,0,0,0,0-9.5,4.7,4.7,0,0,0-3.32,1.38.5.5,0,0,0-.09.58A6.23,6.23,0,0,1,13.75,7.75Z" style="fill: rgba(40, 40, 40, 0.85)"></path>
    <path d="M16.5,13a7.51,7.51,0,0,0-2.38.39.51.51,0,0,0-.32.36.51.51,0,0,0,.13.47A8.93,8.93,0,0,1,16.5,20.5a.51.51,0,0,0,.5.5h6.5a.5.5,0,0,0,.5-.5A7.5,7.5,0,0,0,16.5,13Z" style="fill: rgba(40, 40, 40, 0.85)"></path>
    <circle cx="7.5" cy="7.75" r="4.75" style="fill:rgba(40, 40, 40, 0.85)"></circle>
    <path d="M15,20.5a7.5,7.5,0,0,0-15,0,.5.5,0,0,0,.5.5h14A.5.5,0,0,0,15,20.5Z" style="fill: rgba(40, 40, 40, 0.85)"></path>
  </g></g></svg>