<svg xmlns="http://www.w3.org/2000/svg" viewBox="0 0 48 48">
  
<g transform="matrix(2,0,0,2,0,0)"><g>
    <path d="M17.6,11.17,13.79,7.35a.53.53,0,0,0-.55-.11.5.5,0,0,0-.31.46V10a.25.25,0,0,1-.25.25H1.5a1.25,1.25,0,0,0,0,2.5H12.68a.25.25,0,0,1,.25.25v2.32a.5.5,0,0,0,.31.46.43.43,0,0,0,.19,0,.51.51,0,0,0,.36-.15l3.81-3.82A.48.48,0,0,0,17.6,11.17Z" style="fill: #000000"></path>
    <path d="M22.5.25A1.25,1.25,0,0,0,21.25,1.5v21a1.25,1.25,0,0,0,2.5,0V1.5A1.25,1.25,0,0,0,22.5.25Z" style="fill: #000000"></path>
  </g></g></svg>