<svg xmlns="http://www.w3.org/2000/svg" viewBox="0 0 48 48">
  
<g transform="matrix(2,0,0,2,0,0)"><g>
    <path d="M10.88,16.67a3.28,3.28,0,0,1,1.72-5.44.24.24,0,0,0,.2-.22.26.26,0,0,0-.16-.26l-1.14-.42-.63-.23a.59.59,0,0,1-.14-.31,2.58,2.58,0,0,1,.06-1.3,5.62,5.62,0,0,0,1.46-4.32C12.25,1.76,10.68,0,8.5,0A3.85,3.85,0,0,0,4.74,4.17a5.61,5.61,0,0,0,1.45,4.3,2.41,2.41,0,0,1,.08,1.32.59.59,0,0,1-.14.31l-.63.23C3.05,11.23,1.29,11.88.75,13A9.2,9.2,0,0,0,0,16.5a.5.5,0,0,0,.5.5H10.74a.2.2,0,0,0,.18-.12A.2.2,0,0,0,10.88,16.67Z" style="fill: rgba(40, 40, 40, 0.85)"></path>
    <circle cx="17.75" cy="17.03" r="1.5" style="fill: rgba(40, 40, 40, 0.85)"></circle>
    <path d="M23.52,15.65a1.76,1.76,0,0,0,.23-2.11,1.74,1.74,0,0,0-1.93-.84L20.4,13a.46.46,0,0,1-.53-.31l-.42-1.39a1.77,1.77,0,0,0-3.4,0l-.42,1.4a.47.47,0,0,1-.54.31l-1.41-.33a1.78,1.78,0,0,0-1.7,3l1,1.07a.46.46,0,0,1,0,.62l-1,1.07a1.75,1.75,0,0,0-.23,2.11,1.73,1.73,0,0,0,1.93.84L15.09,21a.47.47,0,0,1,.54.31l.42,1.4a1.78,1.78,0,0,0,3.4,0l.42-1.4A.46.46,0,0,1,20.4,21l1.42.33a1.73,1.73,0,0,0,1.93-.84,1.77,1.77,0,0,0-.23-2.11l-1-1.07a.46.46,0,0,1,0-.62ZM17.75,20a3,3,0,1,1,3-3A3,3,0,0,1,17.75,20Z" style="fill: rgba(40, 40, 40, 0.85)"></path>
  </g></g></svg>