<svg xmlns="http://www.w3.org/2000/svg" viewBox="0 0 48 48">
  
<g transform="matrix(2,0,0,2,0,0)"><g>
    <path d="M6.59,7A2.37,2.37,0,1,0,9,9.39,2.37,2.37,0,0,0,6.59,7Z" style="fill: #000000"></path>
    <path d="M15.28,18.91h-.37a2,2,0,0,1-1.52-3.27l.7-.83-2-3.19a1,1,0,0,0-1.64,0l-2,3.25-.58-.93a1,1,0,0,0-1.64,0l-2.81,4.5a.47.47,0,0,0,0,.5.49.49,0,0,0,.43.26H15.28Z" style="fill: #000000"></path>
    <path d="M23.88,16.61l-4.3-5.06a.48.48,0,0,0-.74,0l-4.3,5.06a.48.48,0,0,0,.37.8h1.87v6.1a.48.48,0,0,0,.48.49h3.9a.48.48,0,0,0,.48-.49v-6.1h1.87A.48.48,0,0,0,23.88,16.61Z" style="fill: #000000"></path>
    <path d="M15.28,21.44,2,21.5,1.93,2,14.27,2,17.7,5.39v5.18a2,2,0,0,1,2-.63V5.39A1.93,1.93,0,0,0,19.14,4L15.68.57A1.89,1.89,0,0,0,14.32,0H1.93A1.94,1.94,0,0,0,0,1.93V21.5a1.94,1.94,0,0,0,1.93,1.93H15.28Z" style="fill: #000000"></path>
  </g></g></svg>