<svg xmlns="http://www.w3.org/2000/svg" viewBox="0 0 48 48">
  
<g transform="matrix(2,0,0,2,0,0)"><g>
    <path d="M24,3.43a2,2,0,0,0-2-2H11.49A1.47,1.47,0,0,0,10,.24H6.12A1.46,1.46,0,0,0,4.68,1.47a1,1,0,0,0,0,.24V11a.48.48,0,0,0,.34.46l.15,0a.47.47,0,0,0,.39-.2L7.88,8.18a.24.24,0,0,1,.39,0l2.36,3.13a.49.49,0,0,0,.88-.29V3.68a.25.25,0,0,1,.25-.25h9.78a.5.5,0,0,1,.5.5V21.54a.5.5,0,0,1-.5.5H2.46a.5.5,0,0,1-.5-.5V3.67a.24.24,0,0,1,.24-.24,1,1,0,0,0,0-2H2a2,2,0,0,0-2,2V22a2,2,0,0,0,2,2H22a2,2,0,0,0,2-2Z" style="fill: rgba(40, 40, 40, 0.85)"></path>
    <path d="M14.45,7.59h3.92a1,1,0,0,0,0-2H14.45a1,1,0,1,0,0,2Z" style="fill: rgba(40, 40, 40, 0.85)"></path>
    <path d="M14.45,11.51h3.92a1,1,0,0,0,0-2H14.45a1,1,0,1,0,0,2Z" style="fill: rgba(40, 40, 40, 0.85)"></path>
    <path d="M18.37,13.47H6.12a1,1,0,1,0,0,2H18.37a1,1,0,1,0,0-2Z" style="fill: rgba(40, 40, 40, 0.85)"></path>
    <path d="M17.39,18.37a1,1,0,0,0-1-1H6.12a1,1,0,1,0,0,2H16.41A1,1,0,0,0,17.39,18.37Z" style="fill: rgba(40, 40, 40, 0.85)"></path>
  </g></g></svg>