<svg width="24" height="24" viewBox="0 0 24 24" fill="none" xmlns="http://www.w3.org/2000/svg">
<g clip-path="url(#clip0_487:12285)">
<path d="M23.25 12.8C23.0511 12.8 22.8603 12.879 22.7197 13.0197C22.579 13.1603 22.5 13.3511 22.5 13.55V19.72C22.4974 19.7872 22.4689 19.8508 22.4204 19.8974C22.3719 19.944 22.3073 19.9701 22.24 19.97C19.2354 19.9661 16.258 20.5398 13.47 21.66C13.3952 21.7021 13.3108 21.7242 13.225 21.7242C13.1392 21.7242 13.0548 21.7021 12.98 21.66C12.9106 21.6114 12.8537 21.5472 12.8137 21.4725C12.7738 21.3978 12.7519 21.3147 12.75 21.23V9.37001C12.75 6.68001 7.07001 5.29001 1.75001 5.14001C1.51823 5.12866 1.2866 5.16545 1.06974 5.24806C0.852883 5.33067 0.655491 5.45732 0.49001 5.62001C0.328559 5.78889 0.202139 5.98805 0.118039 6.20602C0.0339397 6.424 -0.00617456 6.65646 9.92196e-06 6.89001V19.72C-0.000109546 20.1773 0.178764 20.6165 0.498351 20.9435C0.817938 21.2706 1.25285 21.4596 1.71001 21.47C5.71001 21.58 9.40001 22.47 10.81 23.57C11.1442 23.8482 11.5652 24.0005 12 24.0005C12.4348 24.0005 12.8559 23.8482 13.19 23.57C14.6 22.43 18.25 21.57 22.29 21.47C22.7472 21.4596 23.1821 21.2706 23.5017 20.9435C23.8213 20.6165 24.0001 20.1773 24 19.72V13.55C24 13.3511 23.921 13.1603 23.7803 13.0197C23.6397 12.879 23.4489 12.8 23.25 12.8ZM11.25 21.21C11.2481 21.2947 11.2263 21.3778 11.1863 21.4525C11.1464 21.5272 11.0894 21.5914 11.02 21.64C10.9452 21.6821 10.8608 21.7042 10.775 21.7042C10.6892 21.7042 10.6048 21.6821 10.53 21.64C7.73864 20.5369 4.76138 19.9801 1.76001 20C1.69275 20.0001 1.62809 19.974 1.57961 19.9274C1.53113 19.8808 1.5026 19.8172 1.50001 19.75V6.89001C1.49969 6.85456 1.50662 6.81942 1.52037 6.78674C1.53413 6.75407 1.55443 6.72456 1.58001 6.70001C1.59965 6.677 1.62425 6.65875 1.65197 6.64663C1.67968 6.6345 1.70978 6.62882 1.74001 6.63001C7.99001 6.82001 11.25 8.51001 11.25 9.37001V21.21Z" fill="#282828" fill-opacity="0.85"/>
<path d="M9.26002 10.15C7.57649 9.60932 5.83392 9.27356 4.07002 9.15001C3.97197 9.13896 3.87271 9.14763 3.77807 9.1755C3.68343 9.20337 3.59531 9.24989 3.51891 9.31232C3.44251 9.37474 3.37936 9.45182 3.33318 9.539C3.287 9.62619 3.25873 9.72174 3.25002 9.82001C3.24038 9.91858 3.25037 10.0181 3.2794 10.1128C3.30842 10.2075 3.35592 10.2955 3.41914 10.3717C3.48236 10.448 3.56006 10.5109 3.64774 10.557C3.73543 10.603 3.83136 10.6312 3.93002 10.64C5.58158 10.7732 7.21048 11.109 8.78002 11.64C8.87429 11.6759 8.97483 11.6924 9.07563 11.6885C9.17643 11.6846 9.27541 11.6605 9.36665 11.6175C9.45789 11.5744 9.53952 11.5135 9.60664 11.4382C9.67377 11.3629 9.72501 11.2748 9.75732 11.1792C9.78962 11.0837 9.80231 10.9826 9.79464 10.882C9.78696 10.7814 9.75908 10.6834 9.71265 10.5939C9.66622 10.5043 9.60221 10.4251 9.52443 10.3608C9.44666 10.2966 9.35673 10.2487 9.26002 10.22V10.15Z" fill="#282828" fill-opacity="0.85"/>
<path d="M9.25998 13.82C7.57646 13.2793 5.83389 12.9435 4.06999 12.82C3.96855 12.8035 3.86481 12.808 3.7652 12.8332C3.66558 12.8585 3.57221 12.9039 3.4909 12.9668C3.40958 13.0296 3.34204 13.1085 3.29247 13.1985C3.2429 13.2885 3.21237 13.3878 3.20275 13.4901C3.19314 13.5924 3.20465 13.6956 3.23658 13.7933C3.26852 13.891 3.32018 13.981 3.38837 14.0579C3.45656 14.1348 3.53983 14.1968 3.633 14.2402C3.72617 14.2836 3.82725 14.3073 3.92999 14.31C5.58099 14.447 7.20944 14.7828 8.77998 15.31C8.87612 15.3494 8.97938 15.3683 9.08322 15.3657C9.18707 15.3631 9.28924 15.3389 9.38325 15.2947C9.47727 15.2505 9.56108 15.1873 9.62937 15.109C9.69766 15.0307 9.74895 14.9391 9.77998 14.84C9.82211 14.7395 9.84183 14.631 9.83776 14.5221C9.8337 14.4132 9.80596 14.3065 9.75646 14.2094C9.70697 14.1123 9.63692 14.0272 9.55117 13.96C9.46543 13.8927 9.36606 13.8449 9.25998 13.82Z" fill="#282828" fill-opacity="0.85"/>
<path d="M9.26 17.49C7.57537 16.9536 5.83332 16.618 4.07 16.49C3.86976 16.4714 3.67035 16.5332 3.51563 16.6616C3.36091 16.7901 3.26357 16.9748 3.245 17.175C3.22644 17.3752 3.28817 17.5746 3.41664 17.7294C3.5451 17.8841 3.72976 17.9814 3.93 18C5.58171 18.1321 7.21073 18.468 8.78 19C8.96963 19.0636 9.17678 19.0494 9.35588 18.9603C9.53497 18.8712 9.67135 18.7146 9.735 18.525C9.79865 18.3354 9.78437 18.1282 9.69529 17.9491C9.60621 17.77 9.44963 17.6336 9.26 17.57V17.49Z" fill="#282828" fill-opacity="0.85"/>
<path d="M18.5 3C18.7652 3 19.0196 2.89464 19.2071 2.70711C19.3946 2.51957 19.5 2.26522 19.5 2V1C19.5 0.734784 19.3946 0.48043 19.2071 0.292893C19.0196 0.105357 18.7652 0 18.5 0C18.2348 0 17.9804 0.105357 17.7929 0.292893C17.6054 0.48043 17.5 0.734784 17.5 1V2C17.5 2.26522 17.6054 2.51957 17.7929 2.70711C17.9804 2.89464 18.2348 3 18.5 3Z" fill="#282828" fill-opacity="0.85"/>
<path d="M22.35 4.12C22.4961 4.12147 22.6408 4.09089 22.7738 4.03042C22.9069 3.96995 23.025 3.88106 23.12 3.77L23.76 3C23.8575 2.90222 23.9336 2.78531 23.9836 2.65665C24.0337 2.528 24.0566 2.39037 24.0508 2.25244C24.045 2.11451 24.0108 1.97926 23.9502 1.85522C23.8896 1.73118 23.804 1.62102 23.6987 1.53169C23.5935 1.44237 23.4709 1.3758 23.3386 1.33618C23.2064 1.29657 23.0674 1.28477 22.9303 1.30152C22.7933 1.31827 22.6612 1.36321 22.5424 1.43351C22.4236 1.50381 22.3206 1.59795 22.24 1.71L21.59 2.48C21.5052 2.58043 21.4411 2.69658 21.4012 2.82182C21.3614 2.94706 21.3466 3.07893 21.3577 3.20988C21.3689 3.34083 21.4057 3.4683 21.4662 3.58501C21.5266 3.70171 21.6095 3.80535 21.71 3.89C21.8899 4.03909 22.1164 4.12046 22.35 4.12Z" fill="#282828" fill-opacity="0.85"/>
<path d="M13.88 3.77C14.0511 3.97289 14.2957 4.09952 14.5602 4.12202C14.8246 4.14453 15.0871 4.06107 15.29 3.89C15.4929 3.71894 15.6195 3.47428 15.642 3.20986C15.6646 2.94543 15.5811 2.68289 15.41 2.48L14.76 1.71C14.6794 1.59795 14.5764 1.50381 14.4576 1.43351C14.3388 1.36321 14.2067 1.31827 14.0697 1.30152C13.9327 1.28477 13.7937 1.29657 13.6614 1.33618C13.5292 1.3758 13.4066 1.44237 13.3013 1.53169C13.196 1.62102 13.1104 1.73118 13.0498 1.85522C12.9892 1.97926 12.955 2.11451 12.9492 2.25244C12.9435 2.39037 12.9663 2.528 13.0164 2.65665C13.0664 2.78531 13.1426 2.90222 13.24 3L13.88 3.77Z" fill="#282828" fill-opacity="0.85"/>
<path d="M18.5 16.75C18.6981 16.7474 18.8874 16.6676 19.0275 16.5275C19.1676 16.3874 19.2474 16.1981 19.25 16V15.76C19.2489 15.6763 19.2707 15.5939 19.313 15.5216C19.3553 15.4494 19.4165 15.39 19.49 15.35C19.7952 15.1738 20.0484 14.9201 20.224 14.6145C20.3996 14.309 20.4914 13.9624 20.49 13.61V12.83C20.4905 12.7428 20.5139 12.6572 20.5577 12.5817C20.6016 12.5063 20.6644 12.4436 20.74 12.4C21.5979 11.9047 22.2684 11.1402 22.6474 10.225C23.0265 9.30978 23.093 8.29506 22.8367 7.33821C22.5803 6.38136 22.0153 5.53585 21.2294 4.93281C20.4435 4.32977 19.4806 4.0029 18.49 4.0029C17.4994 4.0029 16.5365 4.32977 15.7506 4.93281C14.9647 5.53585 14.3997 6.38136 14.1433 7.33821C13.8869 8.29506 13.9534 9.30978 14.3325 10.225C14.7116 11.1402 15.3821 11.9047 16.24 12.4C16.3156 12.4436 16.3784 12.5063 16.4223 12.5817C16.4661 12.6572 16.4895 12.7428 16.49 12.83V13.61C16.4886 13.9624 16.5803 14.309 16.7559 14.6145C16.9316 14.9201 17.1848 15.1738 17.49 15.35C17.5635 15.39 17.6247 15.4494 17.667 15.5216C17.7093 15.5939 17.7311 15.6763 17.73 15.76V16C17.7313 16.0998 17.7522 16.1984 17.7917 16.2901C17.8311 16.3818 17.8881 16.4649 17.9596 16.5345C18.0311 16.6042 18.1157 16.659 18.2084 16.696C18.3011 16.733 18.4002 16.7513 18.5 16.75ZM16 8.50001C16 8.00556 16.1466 7.52221 16.4213 7.11109C16.696 6.69997 17.0865 6.37953 17.5433 6.19031C18.0001 6.0011 18.5028 5.95159 18.9877 6.04805C19.4727 6.14451 19.9181 6.38262 20.2678 6.73225C20.6174 7.08188 20.8555 7.52733 20.952 8.01229C21.0484 8.49724 20.9989 8.99991 20.8097 9.45672C20.6205 9.91354 20.3 10.304 19.8889 10.5787C19.4778 10.8534 18.9944 11 18.5 11C17.837 11 17.2011 10.7366 16.7322 10.2678C16.2634 9.79894 16 9.16305 16 8.50001Z" fill="#282828" fill-opacity="0.85"/>
</g>
<defs>
<clipPath id="clip0_487:12285">
<rect width="24" height="24" fill="white"/>
</clipPath>
</defs>
</svg>
